<svg width="24" height="22" viewBox="0 0 24 22" fill="none" xmlns="http://www.w3.org/2000/svg">
<g clip-path="url(#clip0_3_158)">
<path d="M21.75 10.9951H18V7.99512C18 6.35449 19.3125 4.99512 21 4.99512H21.375C21.9844 4.99512 22.5 4.52637 22.5 3.87012V1.62012C22.5 1.01074 21.9844 0.495117 21.375 0.495117H21C16.8281 0.495117 13.5 3.87012 13.5 7.99512V19.2451C13.5 20.5107 14.4844 21.4951 15.75 21.4951H21.75C22.9688 21.4951 24 20.5107 24 19.2451V13.2451C24 12.0264 22.9688 10.9951 21.75 10.9951ZM8.25 10.9951H4.5V7.99512C4.5 6.35449 5.8125 4.99512 7.5 4.99512H7.875C8.48438 4.99512 9 4.52637 9 3.87012V1.62012C9 1.01074 8.48438 0.495117 7.875 0.495117H7.5C3.32812 0.495117 0 3.87012 0 7.99512V19.2451C0 20.5107 0.984375 21.4951 2.25 21.4951H8.25C9.46875 21.4951 10.5 20.5107 10.5 19.2451V13.2451C10.5 12.0264 9.46875 10.9951 8.25 10.9951Z" fill="#E71C2C"/>
</g>
<defs>
<clipPath id="clip0_3_158">
<rect width="24" height="22" fill="white"/>
</clipPath>
</defs>
</svg>
